<?xml version="1.0" standalone="no"?>
<!DOCTYPE svg PUBLIC "-//W3C//DTD SVG 20010904//EN"
 "http://www.w3.org/TR/2001/REC-SVG-20010904/DTD/svg10.dtd">
<svg version="1.0" xmlns="http://www.w3.org/2000/svg"
 width="300.000000pt" height="509.000000pt" viewBox="0 0 300.000000 509.000000"
 preserveAspectRatio="xMidYMid meet">
<metadata>
Created by potrace 1.10, written by Peter Selinger 2001-2011
</metadata>
<g transform="translate(0.000000,509.000000) scale(0.100000,-0.100000)"
fill="#000000" stroke="none">
<path d="M1490 4644 c-652 -78 -1186 -143 -1187 -144 -2 0 -3 -945 -3 -2100
l0 -2101 33 6 c17 3 543 66 1167 140 624 74 1150 137 1168 140 l32 6 0 2099
c0 1674 -3 2100 -12 2099 -7 -1 -546 -66 -1198 -145z m1180 -1964 l0 -2067
-108 -12 c-59 -7 -118 -14 -132 -17 -25 -4 -107 -14 -455 -55 -99 -12 -191
-23 -205 -25 -14 -1 -74 -8 -134 -14 -60 -6 -112 -12 -115 -14 -3 -2 -37 -7
-75 -11 -38 -3 -72 -8 -75 -9 -3 -2 -46 -7 -95 -10 -49 -4 -93 -9 -97 -11 -4
-3 -35 -7 -70 -10 -35 -2 -74 -7 -86 -9 -12 -3 -48 -7 -80 -10 -32 -4 -74 -8
-93 -11 -19 -2 -57 -7 -85 -9 -111 -11 -162 -18 -200 -26 -22 -5 -84 -12 -137
-15 l-98 -7 0 2070 0 2070 63 7 c34 4 69 8 77 10 8 1 47 6 85 9 39 4 81 9 95
11 84 13 260 34 335 40 39 4 84 9 100 11 58 10 173 24 400 50 28 3 61 7 75 9
42 7 182 24 245 30 33 3 69 8 80 10 11 2 51 7 88 10 37 4 76 8 85 10 22 4 103
14 167 20 28 3 71 8 95 11 25 2 63 7 85 9 22 2 51 6 65 9 14 2 57 7 95 11 39
4 72 8 73 10 2 2 10 1 18 -2 12 -4 14 -311 14 -2073z"/>
<path d="M2410 4594 c-52 -7 -122 -15 -155 -18 -34 -4 -70 -8 -80 -10 -11 -2
-51 -7 -90 -11 -38 -4 -79 -9 -90 -11 -10 -2 -49 -6 -85 -9 -62 -6 -91 -9
-162 -20 -43 -6 -91 -12 -213 -25 -159 -17 -170 -18 -370 -44 -104 -14 -216
-28 -248 -30 -31 -3 -67 -8 -80 -10 -12 -3 -54 -8 -93 -11 -39 -3 -80 -7 -90
-9 -11 -2 -50 -7 -89 -11 -106 -12 -105 -10 -105 -229 0 -100 0 -957 0 -1906
l-1 -1725 22 -17 c11 -10 24 -16 28 -14 4 3 32 7 62 10 30 3 70 8 89 10 38 5
112 14 175 22 22 2 51 6 65 9 14 2 56 7 93 10 37 4 76 8 85 10 9 1 46 6 82 10
96 10 152 16 180 20 37 6 178 23 236 29 29 3 103 12 165 20 63 8 142 18 176
21 34 3 70 7 80 9 10 2 43 7 73 10 324 38 444 56 456 68 12 12 14 307 14 1923
0 1806 -1 1910 -17 1925 -16 14 -29 15 -113 4z m100 -1929 c0 -1537 -2 -1915
-13 -1915 -14 0 -1909 -226 -1969 -235 l-38 -5 0 1913 0 1914 268 32 c147 18
596 72 997 121 402 48 736 88 743 89 9 1 12 -388 12 -1914z"/>
<path d="M1999 4376 c-99 -26 -182 -97 -231 -195 l-23 -46 0 -1585 0 -1585 22
-41 c50 -94 164 -153 267 -139 59 7 126 35 173 71 33 25 35 25 74 10 22 -9 60
-16 84 -16 l45 0 0 98 -1 97 -32 20 -32 20 -3 823 -2 824 -28 -6 c-15 -3 -70
-10 -122 -16 -52 -6 -107 -13 -122 -16 l-28 -6 0 -103 0 -104 35 6 35 6 0
-727 c0 -710 0 -726 -20 -746 -43 -43 -112 -30 -125 23 -3 12 -4 712 -3 1555
l3 1534 28 24 c33 29 77 31 100 6 15 -17 17 -78 17 -670 l0 -651 28 4 c37 6
181 25 193 25 6 0 9 240 7 663 l-3 662 -24 48 c-30 61 -92 113 -155 132 -59
18 -95 18 -157 1z m175 -39 c46 -20 101 -74 118 -114 13 -32 23 -1319 10
-1326 -4 -3 -42 -8 -84 -12 l-77 -6 -1 627 c0 674 1 652 -49 691 -37 28 -114
-2 -143 -56 -10 -19 -13 -325 -13 -1562 1 -1653 -2 -1574 52 -1598 45 -21 83
-13 119 23 l34 34 0 723 c0 658 -1 724 -17 741 -9 10 -24 18 -35 18 -16 0 -18
9 -18 77 0 42 2 74 6 71 3 -3 22 -2 42 3 20 5 71 11 113 15 l76 6 2 -791 c1
-440 6 -802 11 -815 5 -13 21 -33 37 -44 27 -19 28 -23 25 -91 l-4 -71 -33 0
c-19 0 -50 8 -70 17 -34 16 -36 16 -63 -5 -156 -125 -361 -96 -426 60 -14 33
-16 209 -16 1596 0 1166 3 1567 12 1593 31 92 112 172 205 204 49 17 138 13
187 -8z"/>
<path d="M1463 4297 l-93 -10 0 -1781 0 -1782 93 12 c50 7 102 13 115 13 l22
1 0 1780 0 1780 -22 -2 c-13 0 -65 -5 -115 -11z m104 -1769 c3 -1655 2 -1747
-15 -1752 -9 -3 -47 -8 -84 -12 l-68 -6 0 53 c-4 1143 2 3435 10 3443 5 5 33
11 61 12 28 2 54 6 57 9 3 3 13 4 22 3 13 -3 15 -182 17 -1750z"/>
<path d="M755 4211 l-130 -16 -3 -1780 -2 -1781 179 22 c201 25 245 41 316
109 24 24 56 67 72 96 l28 54 0 735 0 736 -26 49 -25 50 25 55 26 55 3 708 c2
473 -1 721 -8 747 -16 59 -68 120 -129 152 -63 33 -120 35 -326 9z m314 -31
c40 -20 94 -81 112 -129 10 -25 13 -1392 3 -1445 -2 -16 -14 -46 -24 -67 -24
-45 -25 -68 -6 -94 34 -49 36 -95 36 -808 l0 -709 -32 -60 c-55 -104 -144
-159 -279 -173 -35 -4 -75 -9 -89 -11 -14 -2 -51 -6 -82 -10 l-58 -7 0 1746
c1 1251 4 1748 12 1753 6 4 25 9 42 10 17 2 45 6 61 8 17 3 59 8 95 12 36 3
67 9 70 11 10 10 98 -8 139 -27z"/>
<path d="M884 4052 c-12 -2 -30 -12 -40 -23 -17 -19 -19 -53 -21 -572 -1 -304
-3 -556 -3 -562 0 -5 1 -86 4 -179 6 -202 9 -208 91 -193 56 10 92 45 104 100
13 59 5 1361 -8 1385 -20 37 -69 54 -127 44z m91 -47 l25 -24 0 -678 c0 -801
10 -736 -117 -757 l-33 -5 0 739 0 739 33 4 c17 2 40 5 50 5 10 1 29 -9 42
-23z"/>
<path d="M883 2372 c-21 -2 -38 -11 -45 -25 -20 -34 -18 -1468 1 -1491 10 -12
25 -15 56 -12 60 7 89 23 110 59 18 30 19 66 20 702 1 369 -2 682 -6 697 -15
54 -59 77 -136 70z m96 -48 c21 -26 21 -34 21 -700 0 -501 -3 -680 -12 -699
-15 -33 -56 -55 -103 -55 l-35 0 0 734 0 735 23 4 c60 12 86 7 106 -19z"/>
</g>
</svg>
